<?xml version="1.0" encoding="utf-8"?>
<!-- Generator: Adobe Illustrator 22.0.0, SVG Export Plug-In . SVG Version: 6.00 Build 0)  -->
<svg version="1.1" xmlns="http://www.w3.org/2000/svg" xmlns:xlink="http://www.w3.org/1999/xlink" x="0px" y="0px"
	 viewBox="0 0 477.9 85.8" style="enable-background:new 0 0 477.9 85.8;" xml:space="preserve">
<style type="text/css">
	.st0{fill:none;stroke:#000000;stroke-width:2;stroke-miterlimit:10;}
</style>
<g id="Layer_1">
	<g>
		<path d="M17,63.5l8.9-45.3L40.4,51l15-32.8l8,45.3h-6.5l-4.1-25.4L40.3,65.5L28.2,38l-4.5,25.5H17z"/>
		<path d="M70.2,42.2c0-5.9,2.2-11,6.5-15.3c4.3-4.3,9.5-6.4,15.6-6.4c6,0,11.2,2.1,15.5,6.4c4.3,4.3,6.5,9.5,6.5,15.5
			c0,6.1-2.2,11.2-6.5,15.4c-4.4,4.2-9.6,6.4-15.8,6.4c-5.4,0-10.3-1.9-14.7-5.7C72.6,54.5,70.2,49,70.2,42.2z M76.6,42.3
			c0,4.7,1.6,8.5,4.7,11.5c3.1,3,6.7,4.5,10.8,4.5c4.4,0,8.2-1.5,11.2-4.6c3-3.1,4.6-6.9,4.6-11.3c0-4.5-1.5-8.3-4.5-11.3
			c-3-3.1-6.7-4.6-11.1-4.6c-4.4,0-8.1,1.5-11.1,4.6C78.1,34.1,76.6,37.9,76.6,42.3z"/>
		<path d="M136.5,45.5l13.1,18h-7.8l-12-17.3h-1.1v17.3h-6.4V21.4h7.5c5.6,0,9.6,1,12.1,3.1c2.7,2.3,4.1,5.4,4.1,9.2
			c0,3-0.9,5.6-2.6,7.7C141.6,43.6,139.3,44.9,136.5,45.5z M128.6,40.7h2c6,0,9-2.3,9-6.9c0-4.3-2.9-6.5-8.8-6.5h-2.3V40.7z"/>
		<path d="M155.9,63.5v-45l30.7,32.2V21.4h6.4v44.7L162.3,34v29.5H155.9z"/>
		<path d="M209.5,21.4v42.2h-6.4V21.4H209.5z"/>
		<path d="M219.6,63.5v-45l30.7,32.2V21.4h6.4v44.7L226,34v29.5H219.6z"/>
		<path d="M289,41.6h17.4V43c0,3.2-0.4,6-1.1,8.4c-0.7,2.3-2,4.4-3.7,6.3c-3.9,4.4-8.9,6.6-14.9,6.6c-5.9,0-11-2.1-15.2-6.4
			c-4.2-4.3-6.3-9.4-6.3-15.4c0-6.1,2.1-11.3,6.4-15.6c4.3-4.3,9.5-6.4,15.6-6.4c3.3,0,6.4,0.7,9.2,2c2.7,1.3,5.4,3.5,8.1,6.6
			l-4.5,4.3c-3.5-4.6-7.7-6.9-12.6-6.9c-4.5,0-8.2,1.5-11.2,4.6c-3,3-4.5,6.8-4.5,11.4c0,4.7,1.7,8.6,5.1,11.6
			c3.1,2.8,6.6,4.2,10.2,4.2c3.1,0,5.9-1.1,8.4-3.2c2.5-2.1,3.9-4.7,4.2-7.6H289V41.6z"/>
		<path d="M355.5,27.6l-5.2,3.1c-1-1.7-1.9-2.8-2.8-3.3c-0.9-0.6-2.1-0.9-3.5-0.9c-1.8,0-3.2,0.5-4.4,1.5c-1.2,1-1.7,2.2-1.7,3.7
			c0,2.1,1.5,3.7,4.6,5l4.2,1.7c3.4,1.4,5.9,3.1,7.5,5.1c1.6,2,2.4,4.4,2.4,7.3c0,3.9-1.3,7.1-3.9,9.6c-2.6,2.5-5.8,3.8-9.7,3.8
			c-3.7,0-6.7-1.1-9.1-3.2c-2.3-2.2-3.8-5.2-4.4-9.1l6.4-1.4c0.3,2.5,0.8,4.2,1.5,5.1c1.3,1.8,3.2,2.7,5.7,2.7c2,0,3.6-0.7,4.9-2
			c1.3-1.3,2-3,2-5.1c0-0.8-0.1-1.6-0.3-2.3s-0.6-1.3-1.1-1.9c-0.5-0.6-1.1-1.1-1.9-1.6c-0.8-0.5-1.7-1-2.7-1.4l-4.1-1.7
			c-5.8-2.4-8.7-6-8.7-10.7c0-3.2,1.2-5.8,3.6-7.9c2.4-2.1,5.4-3.2,9-3.2C349,20.5,352.7,22.9,355.5,27.6z"/>
		<path d="M376.7,27.3v36.2h-6.4V27.3h-9.7v-6h25.7v6H376.7z"/>
		<path d="M414.5,53.3h-18l-4.7,10.2h-6.9l20.9-44.8l20.1,44.8h-7L414.5,53.3z M411.9,47.3L405.6,33l-6.6,14.3H411.9z"/>
		<path d="M445.4,45.5l13.1,18h-7.8l-12-17.3h-1.1v17.3h-6.4V21.4h7.5c5.6,0,9.6,1,12.1,3.1c2.7,2.3,4.1,5.4,4.1,9.2
			c0,3-0.9,5.6-2.6,7.7C450.5,43.6,448.2,44.9,445.4,45.5z M437.5,40.7h2c6,0,9-2.3,9-6.9c0-4.3-2.9-6.5-8.8-6.5h-2.3V40.7z"/>
	</g>
	<polyline class="st0" points="165.6,74.1 7.4,74.1 7.4,10.2 468.1,10.2 468.1,74.1 309.4,74.1 	"/>
	<g>
		<path d="M179,77.7l1.5-7.8l2.5,5.6l2.6-5.6l1.4,7.8h-1.1l-0.7-4.4l-2.1,4.7l-2.1-4.7l-0.8,4.4H179z"/>
		<path d="M190.5,70.5v7.2h-1.1v-7.2H190.5z"/>
		<path d="M193.2,77.7v-7.2h1.5c0.7,0,1.3,0.1,1.7,0.2c0.5,0.1,0.9,0.4,1.2,0.7c0.7,0.7,1.1,1.6,1.1,2.7c0,1.1-0.4,2-1.2,2.7
			c-0.4,0.3-0.8,0.6-1.2,0.7c-0.4,0.1-1,0.2-1.7,0.2H193.2z M194.2,76.7h0.5c0.5,0,0.9-0.1,1.2-0.2c0.3-0.1,0.6-0.3,0.9-0.5
			c0.5-0.5,0.8-1.1,0.8-1.9c0-0.8-0.3-1.4-0.8-1.9c-0.5-0.4-1.2-0.7-2.1-0.7h-0.5V76.7z"/>
		<path d="M205.1,71.5h-2.9v1.7h2.8v1h-2.8v2.4h2.9v1h-4v-7.2h4V71.5z"/>
		<path d="M207.8,70.5l2,5l2-5h1.2l-3.2,7.8l-3.2-7.8H207.8z"/>
		<path d="M218.5,75.9h-3.1l-0.8,1.8h-1.2L217,70l3.4,7.7h-1.2L218.5,75.9z M218.1,74.9l-1.1-2.5l-1.1,2.5H218.1z"/>
		<path d="M223.4,70.5v6.2h2.1v1h-3.2v-7.2H223.4z"/>
		<path d="M231.4,77.7v-7.2h1.1c0.5,0,0.9,0,1.2,0.1c0.3,0.1,0.5,0.2,0.7,0.4c0.2,0.2,0.4,0.4,0.5,0.7c0.1,0.3,0.2,0.6,0.2,0.8
			c0,0.5-0.2,1-0.6,1.3c0.4,0.1,0.7,0.4,0.9,0.7c0.2,0.3,0.3,0.7,0.3,1.1c0,0.6-0.2,1-0.6,1.4c-0.2,0.2-0.5,0.4-0.8,0.5
			c-0.3,0.1-0.7,0.1-1.2,0.1H231.4z M232.5,73.6h0.3c0.4,0,0.7-0.1,0.9-0.3c0.2-0.2,0.3-0.4,0.3-0.8c0-0.3-0.1-0.6-0.3-0.8
			c-0.2-0.2-0.5-0.3-0.8-0.3h-0.4V73.6z M232.5,76.7h0.7c0.5,0,0.9-0.1,1.1-0.3c0.2-0.2,0.4-0.5,0.4-0.8c0-0.3-0.1-0.6-0.4-0.8
			c-0.2-0.2-0.6-0.3-1.2-0.3h-0.6V76.7z"/>
		<path d="M240.5,74.6l2.2,3.1h-1.3l-2.1-3h-0.2v3h-1.1v-7.2h1.3c1,0,1.6,0.2,2.1,0.5c0.5,0.4,0.7,0.9,0.7,1.6c0,0.5-0.1,1-0.4,1.3
			C241.4,74.3,241,74.5,240.5,74.6z M239.2,73.8h0.3c1,0,1.5-0.4,1.5-1.2c0-0.7-0.5-1.1-1.5-1.1h-0.4V73.8z"/>
		<path d="M248.8,71.5h-2.9v1.7h2.8v1h-2.8v2.4h2.9v1h-4v-7.2h4V71.5z"/>
		<path d="M255.4,75.9h-3.1l-0.8,1.8h-1.2l3.6-7.7l3.4,7.7h-1.2L255.4,75.9z M255,74.9l-1.1-2.5l-1.1,2.5H255z"/>
		<path d="M260.3,73.4l2.8-2.9h1.5l-3.3,3.3l3.3,4h-1.5l-2.6-3.2l-0.2,0.2v3h-1.1v-7.2h1.1V73.4z"/>
		<path d="M270.1,71.5h-2.5v1.7h2.4v1h-2.4v3.4h-1.1v-7.2h3.6V71.5z"/>
		<path d="M276.1,75.9H273l-0.8,1.8H271l3.6-7.7l3.4,7.7h-1.2L276.1,75.9z M275.7,74.9l-1.1-2.5l-1.1,2.5H275.7z"/>
		<path d="M284,71.6l-0.9,0.5c-0.2-0.3-0.3-0.5-0.5-0.6c-0.2-0.1-0.4-0.1-0.6-0.1c-0.3,0-0.6,0.1-0.8,0.3c-0.2,0.2-0.3,0.4-0.3,0.6
			c0,0.4,0.3,0.6,0.8,0.9l0.7,0.3c0.6,0.2,1,0.5,1.3,0.9c0.3,0.3,0.4,0.8,0.4,1.3c0,0.7-0.2,1.2-0.7,1.6c-0.4,0.4-1,0.7-1.7,0.7
			c-0.6,0-1.1-0.2-1.6-0.6c-0.4-0.4-0.7-0.9-0.8-1.6l1.1-0.2c0.1,0.4,0.1,0.7,0.3,0.9c0.2,0.3,0.6,0.5,1,0.5c0.3,0,0.6-0.1,0.8-0.3
			c0.2-0.2,0.3-0.5,0.3-0.9c0-0.1,0-0.3-0.1-0.4c0-0.1-0.1-0.2-0.2-0.3c-0.1-0.1-0.2-0.2-0.3-0.3c-0.1-0.1-0.3-0.2-0.5-0.2l-0.7-0.3
			c-1-0.4-1.5-1-1.5-1.8c0-0.5,0.2-1,0.6-1.4c0.4-0.4,0.9-0.6,1.5-0.6C282.9,70.3,283.5,70.7,284,71.6z"/>
		<path d="M288.6,71.5v6.2h-1.1v-6.2h-1.7v-1h4.4v1H288.6z"/>
	</g>
</g>
<g id="Layer_2">
</g>
</svg>
